<?xml version="1.0" encoding="utf-8"?>
<!-- Generator: Adobe Illustrator 24.2.1, SVG Export Plug-In . SVG Version: 6.00 Build 0)  -->
<svg version="1.1" id="圖層_1" xmlns="http://www.w3.org/2000/svg" xmlns:xlink="http://www.w3.org/1999/xlink" x="0px" y="0px"
	 viewBox="0 0 150 52" style="enable-background:new 0 0 150 52;" xml:space="preserve">
<style type="text/css">
	.st0{fill:#EA663C;}
	.st1{fill:#315ACA;}
	.st2{fill:#F24F5D;}
	.st3{fill:#28ACA6;}
	.st4{fill:#CA912C;}
	.st5{fill:#FFD900;}
</style>
<path class="st0" d="M34.64,2.41c-6.1-3.84-14.12-1.47-20.11,3.62C8.54,11.11,1.75,22.19,0.29,33.94
	C-1.17,45.69,3.68,48.4,6.16,50.55c2.49,2.15,12.32,1.81,17.18-1.35c4.86-3.16,9.04-11.63,9.72-16.04c0.68-4.41-2.26-1.25-3.73,1.24
	c-1.47,2.49-5.31,5.88-7.8,6.44c-2.49,0.56-8.02,1.02-10.17-2.37c-2.15-3.39,0.45-5.31,0.45-5.31s4.75-2.49,9.94-4.07
	c5.2-1.58,14.35-5.99,16.05-12.32C37.8,16.76,40.74,6.26,34.64,2.41 M28.42,15.29c0,0-3.05,3.16-6.55,4.74
	c-3.5,1.58-8.59,2.15-8.59,2.15c1.92-7.46,7.8-13,12.2-12.66C29.89,9.87,28.42,15.29,28.42,15.29"/>
<path class="st1" d="M61.72,14.69c0,0-4.44-4.66-11.53-3.68c-7.08,0.98-9.34,4.73-11.15,8.8c-1.81,4.07-1.3,8.42,0.14,11.06
	c1.44,2.64,5.75,3.96,6.49,5.43c1.06,2.11,0.86,4-1.28,4.75c-1.19,0.41-3.54,0-4.44-0.68c-0.9-0.68-2.4-3.01-2.4-3.01l-2.89,2.87
	l-3.67,4.36c0,0,3.69,4.07,6.7,4.74c3.01,0.68,6.7,0.75,10.7-1.51c4.04-2.29,5.42-5.2,6.63-7.38c1.2-2.19,2.33-9.27,0.04-11.56
	c-1.48-1.48-3.71-2.88-6.9-6.07c-1.88-1.88,2.11-6.1,4.97-3.99c2.86,2.11,2.41,2.86,2.41,2.86L61.72,14.69z"/>
<path class="st2" d="M89.44,17.13c-0.14-1.51,0.56-3.18-3.45-4.44c-3.96-1.25-7.62,1.7-7.62,1.7l-4.29,3.33l5.88-17.24H70
	L54.87,51.53H63l1.51-5.45c0,0,0.37,3.2,2.18,3.81c1.81,0.6,3.77,1.12,7.99,0.52c4.22-0.6,7.38-7.65,9.49-12.54
	C87.71,29.65,89.81,21.2,89.44,17.13 M78.67,24.86c-0.6,2.71-4.74,13.28-4.74,13.28s-1.44,3.52-4.15,2.92
	c-2.71-0.6-2.05-3.24-2.05-3.24l4.84-13.86c0,0,1.05-3.16,4.22-3.16C78.14,20.79,79.27,22.15,78.67,24.86"/>
<path class="st3" d="M114.35,25.55c0,0,4.03-6.8-1.07-10.92c-3.66-2.96-12.18-1.92-14.95-0.29c-2.76,1.62-5.43,2.72-5.43,2.72
	l1.83,6.53c0,0,3.12-2.68,5.15-3.39c2.02-0.71,5.33-1.29,6.1,0.05c1.16,2.02-0.82,4.87-0.51,6.04c0.24,0.9-7.47-0.82-13.57,4.16
	c-4.88,3.98-6.6,6.55-7.48,12.89c-0.79,5.68,2.23,7.5,4.5,8.07c2.27,0.57,7.52-1.1,10.34-3.93c2.82-2.83,1.64-1.46,1.64-1.46
	s0.72,2.93,1.34,3.71c0.61,0.78,7.16,0.63,7.16,0.63l1.71-7.12c0,0-0.61,0.23-1-0.14c-0.38-0.37-1.42-0.94,0.29-5.6
	C112.49,31.75,114.35,25.55,114.35,25.55 M99.16,41.9c-0.29,0.53-2.46,1.92-3.82,1.42c-1.36-0.51-2-2.61-1.35-4.2
	c0.65-1.59,2.43-3.88,4.28-5.49c1.86-1.61,5.02-1.74,5.02-1.74C104.97,32.77,99.45,41.37,99.16,41.9"/>
<polygon class="st4" points="127.4,0.48 137.35,0.48 120.25,51.53 111.13,51.53 "/>
<polygon class="st5" points="140.51,0.48 150,0.48 133.66,51.53 124.24,51.53 "/>
</svg>
